<?xml version="1.0" encoding="utf-8"?>
<!-- Generator: Adobe Illustrator 24.1.3, SVG Export Plug-In . SVG Version: 6.00 Build 0)  -->
<svg version="1.1" id="Layer_1" xmlns="http://www.w3.org/2000/svg" xmlns:xlink="http://www.w3.org/1999/xlink" x="0px" y="0px"
	 viewBox="0 0 997 997" style="enable-background:new 0 0 997 997;" xml:space="preserve">
<style type="text/css">
	.st0{fill:#C19E5F;}
	.st1{fill:#FFEBC8;}
	.st2{fill:#D2AD6C;}
	.st3{fill:#E5C285;}
</style>
<g>
	<polygon class="st0" points="181.3,679.7 271.9,679.7 226.6,634.4 	"/>
	<polygon class="st1" points="861,0 679.7,0 770.4,45.3 	"/>
	<polygon class="st1" points="815.7,317.2 725.1,317.2 770.4,362.5 	"/>
	<polygon class="st1" points="725.1,317.2 725.1,317.2 725.1,317.2 	"/>
	<polygon class="st0" points="725.1,679.7 815.7,679.7 770.4,634.4 	"/>
	<polygon class="st2" points="770.4,634.4 770.4,498.5 770.4,498.5 770.4,362.5 725.1,317.2 725.1,317.2 725.1,453.2 770.4,498.5 
		725.1,543.8 725.1,679.7 	"/>
	<polygon class="st3" points="770.4,498.5 770.4,498.5 770.4,634.4 815.7,679.7 815.7,317.2 770.4,362.5 	"/>
	<polygon class="st1" points="271.9,317.2 181.3,317.2 226.6,362.5 	"/>
	<polygon class="st2" points="226.6,498.5 226.6,362.5 181.3,317.2 181.3,679.7 226.6,634.4 	"/>
	<polygon class="st3" points="226.6,498.5 271.9,453.2 271.9,317.2 226.6,362.5 	"/>
	<polygon class="st3" points="226.6,634.4 271.9,679.7 271.9,543.8 226.6,498.5 	"/>
	<polygon class="st3" points="997,271.9 996.9,181.3 951.6,226.6 	"/>
	<polygon class="st3" points="135.9,543.8 135.9,453.2 90.6,498.5 	"/>
	<polygon class="st0" points="90.6,498.5 45.3,498.5 0,543.8 135.9,543.8 	"/>
	<polygon class="st2" points="45.3,226.6 0,181.3 0,543.8 45.3,498.5 	"/>
	<polygon class="st3" points="45.3,498.5 90.6,453.2 90.6,271.9 45.3,226.6 	"/>
	<polygon class="st1" points="90.6,498.5 135.9,453.2 90.6,453.2 45.3,498.5 	"/>
	<polygon class="st2" points="861,453.2 861,543.8 906.3,498.5 	"/>
	<polygon class="st1" points="951.7,498.5 997,453.2 861,453.2 906.3,498.5 	"/>
	<polygon class="st3" points="951.7,498.5 951.7,770.4 997,815.7 997,453.2 	"/>
	<polygon class="st2" points="951.7,498.5 906.3,543.8 906.4,725.1 951.7,770.4 	"/>
	<polygon class="st0" points="906.3,498.5 861,543.8 906.3,543.8 951.7,498.5 	"/>
	<polygon class="st2" points="0,725.1 0,815.7 45.3,770.4 	"/>
	<polygon class="st1" points="226.6,906.3 271.9,861 181.3,861 	"/>
	<polygon class="st2" points="181.3,861 226.6,997 226.6,906.3 	"/>
	<polygon class="st3" points="226.6,997 271.9,861 226.6,906.3 	"/>
	<polygon class="st1" points="770.4,906.3 815.7,861 725.1,861 	"/>
	<polygon class="st3" points="770.4,997 815.7,861 770.4,906.3 	"/>
	<polygon class="st2" points="725.1,861 770.4,997 770.4,906.3 	"/>
	<polygon class="st1" points="317.2,0 135.9,0 226.6,45.3 	"/>
	<polygon class="st0" points="181.3,135.9 271.9,135.9 226.6,90.6 	"/>
	<polygon class="st2" points="226.6,90.6 226.6,45.3 135.9,0 181.3,135.9 	"/>
	<polygon class="st3" points="226.6,90.6 271.9,135.9 317.2,0 226.6,45.3 	"/>
	<polygon class="st0" points="725,135.9 815.7,135.9 770.4,90.6 	"/>
	<polygon class="st2" points="770.4,90.6 770.4,45.3 679.7,0 725,135.9 	"/>
	<polygon class="st3" points="770.4,90.6 815.7,135.9 861,0 770.4,45.3 	"/>
	<polygon class="st1" points="951.6,226.6 996.9,181.3 0,181.3 45.3,226.6 	"/>
	<polygon class="st1" points="951.7,770.4 906.4,725.1 0,725.1 45.3,770.4 	"/>
	<polygon class="st1" points="770.4,498.5 725.1,453.2 271.9,453.2 226.6,498.5 	"/>
	<polygon class="st0" points="226.6,498.5 271.9,543.8 725.1,543.8 770.4,498.5 	"/>
	<polygon class="st0" points="45.3,226.6 90.6,271.9 997,271.9 951.6,226.6 	"/>
	<polygon class="st0" points="45.3,770.4 0,815.7 997,815.7 951.7,770.4 	"/>
</g>
</svg>
