<svg id="Layer_1" data-name="Layer 1" xmlns="http://www.w3.org/2000/svg" viewBox="0 0 204.92 204.92"><defs><style>.cls-1{fill:#00ceff;}.cls-2{fill:#0069ff;}</style></defs><path class="cls-1" d="M102.46,39.53A115,115,0,0,0,0,102.46a102.46,102.46,0,0,1,204.92,0A115,115,0,0,0,102.46,39.53Z"/><path class="cls-2" d="M140.91,98.51a37.41,37.41,0,0,0-.59-3.84,38.6,38.6,0,0,0-37.86-30.86h0a38.48,38.48,0,0,0-21,6.24c-.7.46-1.4.93-2.08,1.44s-1.42,1.12-2.11,1.71-1.42,1.26-2.09,1.93c-.44.44-.86.88-1.28,1.34-.83.92-1.62,1.87-2.36,2.86s-1.44,2-2.08,3.09a37.17,37.17,0,0,0-1.79,3.28,38.06,38.06,0,0,0-3,9A37.41,37.41,0,0,0,64,98.51c-.13,1.3-.2,2.61-.2,3.95A38.51,38.51,0,0,0,65,112.12a35.45,35.45,0,0,0,1.13,3.63c.21.59.44,1.18.69,1.75.49,1.16,1,2.29,1.62,3.38.3.55.61,1.09.94,1.62a38.6,38.6,0,0,0,33.05,18.61h0A38.72,38.72,0,0,0,133.88,125c.57-.79,1.12-1.61,1.63-2.45q.5-.8.93-1.62a36.27,36.27,0,0,0,1.63-3.38c.25-.57.48-1.16.69-1.75.44-1.19.81-2.4,1.13-3.63a38.51,38.51,0,0,0,1.22-9.66C141.11,101.12,141,99.81,140.91,98.51Z"/><path class="cls-2" d="M102.46,165.39A115,115,0,0,1,0,102.46a102.46,102.46,0,0,0,204.92,0A115,115,0,0,1,102.46,165.39Z"/></svg>