<?xml version="1.0" encoding="utf-8"?>
<!-- Generator: Adobe Illustrator 24.1.3, SVG Export Plug-In . SVG Version: 6.00 Build 0)  -->
<svg version="1.1" id="Layer_1" xmlns="http://www.w3.org/2000/svg" xmlns:xlink="http://www.w3.org/1999/xlink" x="0px" y="0px"
	 viewBox="0 0 1000 1000" style="enable-background:new 0 0 1000 1000;" xml:space="preserve">
<style type="text/css">
	.st0{fill:#FFFFFF;}
	.st1{fill:#EF3A30;}
</style>
<path class="st0" d="M503.3,322.7L503,323l0.3,0.3V322.7z"/>
<path d="M1000,1000H0V0h1000V1000z M40,960h920V40H40V960z"/>
<path d="M120.4,725.5h23.9l23.5,106.2h0.4l29-106.2h16.4l28.9,106.2h0.4l23.6-106.2h23.9L253,875h-19l-28.5-107.8h-0.4L176.5,875
	h-18.9L120.4,725.5z"/>
<rect x="303.8" y="768.6" width="21.4" height="106.4"/>
<path d="M387,856.1c6.2,0,11.2-1.2,15.1-3.6c3.9-2.4,5.8-5.7,5.8-10c0-3.8-1.2-6.5-3.5-8c-2.4-1.6-5.6-2.4-9.5-2.6l-18.9-1.6
	c-9-0.8-16.2-3.8-21.8-9c-5.7-5.1-8.7-12.1-8.8-21.2c0.1-10.9,4-19.1,11.6-24.6c7.4-5.5,16.7-8.2,28.1-8.2c4.9,0,9.3,0.3,13.2,0.9
	c3.9,0.7,7.6,1.6,11,2.9c6.6,2.7,12.4,6.3,17.6,10.8l-13.2,15.5c-4.1-2.9-8.4-5.4-13-7.3c-4.5-1.7-9.7-2.6-15.6-2.6
	c-6.7,0-11.4,1.2-14,3.6c-2.8,2.4-4.2,5.5-4.2,9.2c-0.1,2.4,0.9,4.5,3.2,6.3c2.1,2,5.7,3.2,10.9,3.8l17.6,1.3
	c11.1,0.8,19.1,4.2,24,10c4.6,5.7,6.9,13,6.9,21.8c-0.1,10.3-4.3,18.3-12.6,23.9c-8.2,5.7-18.7,8.7-31.5,8.8
	c-17.4,0-33-6.4-46.9-19.1l15-14.7C362.1,851.6,373.3,856.1,387,856.1z"/>
<path d="M507.5,863.6c-4,3.8-8.1,6.8-12.4,9c-4.6,2.4-9.7,3.6-15.1,3.6c-6.5-0.1-12-1.5-16.6-4c-4.8-2.5-8.8-5.7-12-9.8
	c-2.9-3.5-4.9-8-5.8-13.4c-1.2-5.5-1.7-14.5-1.7-27.1c0-12.9,0.6-22.1,1.7-27.5c1-5.5,2.9-9.9,5.8-13.2c6-9,15.6-13.6,28.6-13.9
	c11.3,0.3,20.4,4.5,27.5,12.4v-11.1h21.4v149.5h-21.4L507.5,863.6L507.5,863.6z M486.5,854.8c5.1,0,9.1-1,12-3.1c2.9-2,5-4.6,6-7.8
	c1.4-3.2,2.4-6.8,2.8-10.8c0.1-3.8,0.2-7.5,0.2-11.3c0-4-0.1-8-0.2-12c-0.4-3.8-1.3-7.2-2.8-10.5c-1.1-3.2-3.1-5.8-6-7.8
	s-6.9-3-12-3s-8.9,0.9-11.6,2.6c-2.9,1.8-5.1,4.4-6.5,7.6c-1.3,3.1-2.2,6.6-2.6,10.7c-0.4,4-0.6,8.2-0.6,12.4c0,4,0.2,8,0.6,11.8
	c0.4,3.9,1.3,7.5,2.6,10.7c1.4,3.1,3.5,5.6,6.5,7.6C477.6,853.8,481.4,854.8,486.5,854.8z"/>
<path d="M553.3,768.6h21.4V832c0,7.2,2,12.8,6.1,16.8c4,4,9,6,15.2,6s11.2-2,15.1-6c4-4,5.9-9.6,5.9-16.8v-63.4h21.4V875H617v-11.4
	h-0.4c-7,8.4-16.2,12.6-27.6,12.6c-8.8-0.1-16.8-3.3-23.9-9.6c-7.7-6.2-11.7-15.2-11.8-27.3V768.6z"/>
<path d="M678.9,829.9c0,8.5,2.5,15,7.4,19.5c4.6,4.5,10.6,6.8,18,6.8c8.7,0,16.4-3.5,23.3-10.4l15.5,13.2
	c-10.9,11.6-23.7,17.4-38.3,17.2c-5.6,0-11.1-0.8-16.4-2.5c-2.7-0.9-5.3-2.1-7.8-3.6c-2.7-1.3-5.2-2.9-7.5-4.8
	c-4.5-4-8.2-9.5-11-16.6c-3.1-6.8-4.6-15.7-4.6-26.7c0-10.5,1.3-19.3,4-26.2c2.7-7.1,6.1-12.7,10.3-16.8c4.2-4.2,9-7.2,14.3-9
	c5.2-1.8,10.3-2.8,15.4-2.8c12.2,0.1,22.5,4.1,30.9,12c8.5,8,12.9,19,13,33v17.6L678.9,829.9L678.9,829.9z M723.8,812.2
	c-0.3-8.3-2.5-14.5-6.7-18.8c-4.1-4-9.4-6-15.8-6c-6.4,0-11.7,2-15.8,6c-4,4.2-6.3,10.5-6.7,18.8H723.8z"/>
<circle class="st1" cx="314.5" cy="736.2" r="10.7"/>
</svg>
